#!OML:ASF X:\für Bonn\!DataBase\2005_08_12_Daniel\c3d\Daniel.ASF
:FULLY-SPECIFIED
:DEGREES
169
root -0.930208 17.8969 0.166387 -22.2929 -78.4357 16.7628
lowerback 6.35769 2.31141 0.467772
upperback -9.59396 2.17302 -5.9272
thorax -13.8868 0.425111 -7.24117
lowerneck 8.22701 -5.25312 -2.64842
upperneck 6.98653 -7.46012 1.37854
head 0.965443 -3.87847 0.964173
rclavicle 6.04305e-014 -7.63333e-014
rhumerus -82.2978 -181.935 44.6789
rradius 6.93949
rwrist 95.5569
rhand -12.4155 366.791
rfingers 7.12502
rthumb 13.6566 -22.7414
lclavicle 6.04305e-014 -7.63333e-014
lhumerus -117.017 208.057 -109.446
lradius 71.9665
lwrist 24.8572
lhand -24.5031 365.706
lfingers 7.12502
lthumb 1.99143 35.6769
rfemur 10.1631 23.9237 21.2825
rtibia 26.2578
rfoot -44.4502 -27.4915
rtoes 2.31311
lfemur -10.4114 -18.9234 -19.0263
ltibia 39.3627
lfoot -3.42131 1.19848
ltoes 9.41817
170
root -0.919779 17.899 0.166657 -22.4626 -78.5934 16.9071
lowerback 6.37557 2.30293 0.567642
upperback -9.47571 2.18804 -5.9144
thorax -13.751 0.433242 -7.27758
lowerneck 8.50539 -5.18227 -2.57877
upperneck 6.81144 -7.36934 1.49521
head 0.865508 -3.83187 0.999799
rclavicle 1.51076e-014 3.33958e-014
rhumerus -83.1333 -184.805 30.44
rradius 6.9479
rwrist 109.99
rhand -5.7034 365.631
rfingers 7.12502
rthumb 20.1175 -23.3477
lclavicle 1.51076e-014 3.33958e-014
lhumerus -117.353 207.918 -109.252
lradius 71.8777
lwrist 25.0431
lhand -24.1646 366.004
lfingers 7.12502
lthumb 2.3184 35.9714
rfemur 10.1962 24.105 21.2829
rtibia 26.1431
rfoot -44.4038 -27.4078
rtoes 2.47231
lfemur -10.4329 -18.7995 -18.9104
ltibia 39.288
lfoot -2.99306 1.19591
ltoes 9.84721
171
root -0.910597 17.895 0.167202 -22.6539 -78.7662 16.8402
lowerback 6.60405 2.28277 0.706507
upperback -9.26654 2.19954 -5.88727
thorax -13.6396 0.439807 -7.32805
lowerneck 8.76064 -5.12443 -2.42087
upperneck 6.60633 -7.28442 1.57703
head 0.755515 -3.7859 1.0098
rclavicle 6.75868e-014 -6.36111e-015
rhumerus -84.8765 -187.162 16.0494
rradius 7.72117
rwrist 124.789
rhand -0.183522 365.461
rfingers 7.12502
rthumb 25.4146 -22.8651
lclavicle 6.75868e-014 -6.36111e-015
lhumerus -117.625 207.801 -109.14
lradius 71.8793
lwrist 25.1951
lhand -23.8819 366.277
lfingers 7.12502
lthumb 2.5914 36.2414
rfemur 10.5131 24.2071 21.4162
rtibia 25.9968
rfoot -44.2869 -27.2917
rtoes 2.55015
lfemur -10.1851 -18.666 -18.8296
ltibia 39.2406
lfoot -2.62357 1.1609
ltoes 10.3038
172
root -0.901541 17.8859 0.168212 -23.1625 -78.9079 16.8944
lowerback 7.0297 2.24465 0.790973
upperback -8.99149 2.18468 -5.83825
thorax -13.5807 0.441574 -7.32766
lowerneck 9.0277 -5.05702 -2.28691
upperneck 6.38452 -7.18648 1.64567
head 0.638773 -3.73413 1.02009
rclavicle 7.95139e-015 -7.95139e-015
rhumerus -87.3417 -188.702 1.51099
rradius 8.92047
rwrist 139.995
rhand 3.58619 365.981
rfingers 7.12502
rthumb 29.0206 -21.7792
lclavicle 7.95139e-015 -7.95139e-015
lhumerus -117.958 207.687 -108.973
lradius 71.9507
lwrist 25.2616
lhand -23.6445 366.464
lfingers 7.12502
lthumb 2.82071 36.425
rfemur 11.0439 24.1024 21.5218
rtibia 25.8354
rfoot -44.0144 -27.1161
rtoes 2.68329
lfemur -9.71445 -18.492 -18.8535
ltibia 39.2106
lfoot -2.2938 1.09645
ltoes 10.7668
173
root -0.891852 17.878 0.169515 -23.468 -79.0623 16.8191
lowerback 7.34387 2.20425 0.887671
upperback -8.71456 2.17297 -5.77041
thorax -13.4491 0.44812 -7.3049
lowerneck 9.23951 -4.97772 -2.21408
upperneck 6.1921 -7.07713 1.74893
head 0.543418 -3.67802 1.04874
rclavicle 4.09496e-014 2.38542e-014
rhumerus -90.111 -189.276 -13.1196
rradius 10.0171
rwrist 155.532
rhand 5.32484 366.431
rfingers 7.12502
rthumb 30.6798 -21.0314
lclavicle 4.09496e-014 2.38542e-014
lhumerus -118.325 207.568 -108.765
lradius 72.1223
lwrist 25.2808
lhand -23.4077 366.631
lfingers 7.12502
lthumb 3.04938 36.5891
rfemur 11.4629 23.909 21.5737
rtibia 25.654
rfoot -43.5656 -27.0033
rtoes 2.73603
lfemur -9.3505 -18.2339 -18.8078
ltibia 39.2043
lfoot -1.97952 1.01456
ltoes 11.2369
174
root -0.881218 17.8726 0.170459 -23.4783 -79.2433 16.6068
lowerback 7.48311 2.17005 1.00849
upperback -8.47529 2.17154 -5.70639
thorax -13.2507 0.458098 -7.29231
lowerneck 9.44995 -4.91194 -2.06764
upperneck 5.98627 -6.97606 1.79643
head 0.439742 -3.6245 1.04808
rclavicle 5.76476e-014 -2.22639e-014
rhumerus -90.9193 -189.244 -15.787
rradius 10.868
rwrist 159.416
rhand 7.39007 366.847
rfingers 7.12502
rthumb 32.6469 -20.227
lclavicle 5.76476e-014 -2.22639e-014
lhumerus -118.679 207.469 -108.587
lradius 72.316
lwrist 25.2888
lhand -23.1706 366.756
lfingers 7.12502
lthumb 3.27831 36.7105
rfemur 11.6378 23.6141 21.5158
rtibia 25.4867
rfoot -43.0194 -26.812
rtoes 2.80194
lfemur -9.18046 -17.9301 -18.6712
ltibia 39.2099
lfoot -1.64811 0.907121
ltoes 11.5645
175
root -0.870339 17.868 0.171956 -23.5564 -79.4262 16.4766
lowerback 7.58778 2.1414 1.11677
upperback -8.22476 2.17591 -5.64664
thorax -13.0179 0.473456 -7.27534
lowerneck 9.63183 -4.84265 -1.98083
upperneck 5.7956 -6.87617 1.89883
head 0.34939 -3.57314 1.0732
rclavicle 4.77083e-015 -1.11319e-014
rhumerus -91.5264 -189.126 -17.5762
rradius 11.5985
rwrist 162.462
rhand 8.29138 367.281
rfingers 7.12502
rthumb 33.504 -19.6112
lclavicle 4.77083e-015 -1.11319e-014
lhumerus -119.026 207.39 -108.366
lradius 72.5359
lwrist 25.2458
lhand -22.8944 366.822
lfingers 7.12502
lthumb 3.54504 36.7725
rfemur 11.77 23.2353 21.3916
rtibia 25.3324
rfoot -42.3142 -26.6222
rtoes 2.9223
lfemur -9.01825 -17.6253 -18.5593
ltibia 39.2292
lfoot -1.38414 0.812122
ltoes 11.8628
176
root -0.859427 17.8634 0.173342 -23.5397 -79.6077 16.248
lowerback 7.67083 2.1024 1.21897
upperback -7.95638 2.16907 -5.56665
thorax -12.7541 0.487385 -7.22755
lowerneck 9.79396 -4.76363 -1.87561
upperneck 5.60223 -6.7584 1.94759
head 0.258432 -3.51206 1.07748
rclavicle -3.26007e-014 -4.77083e-015
rhumerus -91.9434 -188.927 -18.5764
rradius 12.1611
rwrist 164.644
rhand 8.09288 367.547
rfingers 7.12502
rthumb 33.3153 -19.3861
lclavicle -3.26007e-014 -4.77083e-015
lhumerus -119.348 207.306 -108.104
lradius 72.7078
lwrist 25.1722
lhand -22.6344 366.889
lfingers 7.12502
lthumb 3.79616 36.8351
rfemur 11.8715 22.7973 21.2602
rtibia 25.2074
rfoot -41.5476 -26.4673
rtoes 2.91597
lfemur -8.85292 -17.3329 -18.4458
ltibia 39.2516
lfoot -1.15473 0.730358
ltoes 12.094
177
root -0.846017 17.8601 0.174545 -23.504 -79.7872 16.0104
lowerback 7.7616 2.06152 1.31235
upperback -7.69729 2.15757 -5.48056
thorax -12.5086 0.499015 -7.16896
lowerneck 9.99068 -4.68385 -1.78354
upperneck 5.41102 -6.64183 2.01146
head 0.163447 -3.45267 1.08963
rclavicle -1.98785e-014 0
rhumerus -92.2488 -188.649 -19.2158
rradius 12.5901
rwrist 166.237
rhand 6.8783 367.612
rfingers 7.12502
rthumb 32.1598 -19.5616
lclavicle -1.98785e-014 0
lhumerus -119.68 207.255 -107.799
lradius 72.8687
lwrist 25.063
lhand -22.3943 366.926
lfingers 7.12502
lthumb 4.028 36.8681
rfemur 11.9413 22.3534 21.1195
rtibia 25.1122
rfoot -40.7659 -26.2599
rtoes 3.05322
lfemur -8.70681 -17.0206 -18.3201
ltibia 39.2745
lfoot -0.929851 0.640339
ltoes 12.2526
178
root -0.829629 17.8582 0.176044 -23.4667 -79.9662 15.792
lowerback 7.87103 2.01858 1.40553
upperback -7.45737 2.14082 -5.39507
thorax -12.2988 0.505735 -7.11341
lowerneck 10.1733 -4.59735 -1.72752
upperneck 5.24224 -6.52008 2.08675
head 0.0789342 -3.39172 1.11018
rclavicle 5.04913e-014 -5.24792e-014
rhumerus -92.4431 -188.303 -19.5881
rradius 12.8784
rwrist 167.251
rhand 4.9065 367.493
rfingers 7.12502
rthumb 30.2808 -20.0427
lclavicle 5.04913e-014 -5.24792e-014
lhumerus -119.969 207.213 -107.58
lradius 73.0079
lwrist 25.0072
lhand -22.2269 367.001
lfingers 7.12502
lthumb 4.18966 36.9398
rfemur 11.9403 21.8554 20.929
rtibia 25.052
rfoot -39.8839 -26.1098
rtoes 3.01741
lfemur -8.58111 -16.7794 -18.2205
ltibia 39.2961
lfoot -0.78543 0.610577
ltoes 12.3357
179
root -0.81036 17.8563 0.177406 -23.4073 -80.1467 15.5509
lowerback 7.98452 1.97463 1.50957
upperback -7.20102 2.12296 -5.32202
thorax -12.0731 0.511052 -7.07752
lowerneck 10.3242 -4.51851 -1.61237
upperneck 5.0828 -6.40098 2.13443
head -0.000219415 -3.3308 1.11097
rclavicle 3.69739e-014 2.22639e-014
rhumerus -92.585 -187.971 -19.8784
rradius 13.0945
rwrist 167.9
rhand 2.40918 367.304
rfingers 7.12502
rthumb 27.8958 -20.644
lclavicle 3.69739e-014 2.22639e-014
lhumerus -120.197 207.192 -107.448
lradius 73.172
lwrist 24.9968
lhand -22.1155 367.112
lfingers 7.12502
lthumb 4.29722 37.0488
rfemur 11.9029 21.3229 20.7246
rtibia 25.0258
rfoot -38.9465 -25.9639
rtoes 3.0355
lfemur -8.46591 -16.558 -18.1181
ltibia 39.3209
lfoot -0.670387 0.583032
ltoes 12.4062
180
root -0.789804 17.8554 0.179426 -23.4208 -80.3217 15.4039
lowerback 8.09108 1.92726 1.58764
upperback -6.96998 2.09554 -5.24007
thorax -11.8757 0.512432 -7.0169
lowerneck 10.5098 -4.42408 -1.57378
upperneck 4.94816 -6.27116 2.21262
head -0.0744797 -3.26697 1.13419
rclavicle 2.26615e-014 3.18055e-015
rhumerus -92.6496 -187.574 -19.8844
rradius 13.1744
rwrist 168.017
rhand -0.360664 367.156
rfingers 7.12502
rthumb 25.2449 -21.1944
lclavicle 2.26615e-014 3.18055e-015
lhumerus -120.474 207.187 -107.312
lradius 73.3129
lwrist 24.9551
lhand -22.072 367.238
lfingers 7.12502
lthumb 4.33924 37.1738
rfemur 11.8296 20.8592 20.5219
rtibia 25.0338
rfoot -38.0714 -25.925
rtoes 2.81946
lfemur -8.38076 -16.3761 -18.046
ltibia 39.3588
lfoot -0.611224 0.574609
ltoes 12.4355
181
root -0.768383 17.8532 0.180951 -23.3894 -80.4855 15.2113
lowerback 8.20221 1.87589 1.66353
upperback -6.73537 2.06104 -5.165
thorax -11.6787 0.509967 -6.96205
lowerneck 10.6682 -4.33443 -1.50765
upperneck 4.84152 -6.14453 2.26464
head -0.137168 -3.20413 1.14309
rclavicle 1.19271e-015 -2.06736e-014
rhumerus -92.64 -187.191 -19.6504
rradius 13.1805
rwrist 167.729
rhand -3.09979 367.19
rfingers 7.12502
rthumb 22.6182 -21.5048
lclavicle 1.19271e-015 -2.06736e-014
lhumerus -120.709 207.196 -107.255
lradius 73.4655
lwrist 25.0269
lhand -22.1858 367.416
lfingers 7.12502
lthumb 4.22935 37.3535
rfemur 11.7587 20.4551 20.3668
rtibia 25.0694
rfoot -37.3055 -25.9171
rtoes 2.56754
lfemur -8.30383 -16.1574 -17.9609
ltibia 39.4021
lfoot -0.534286 0.538728
ltoes 12.487
182
root -0.747018 17.8499 0.182946 -23.4428 -80.6458 15.1216
lowerback 8.28159 1.83277 1.73665
upperback -6.51522 2.03372 -5.10687
thorax -11.4784 0.50948 -6.92507
lowerneck 10.819 -4.24453 -1.44963
upperneck 4.78807 -6.02087 2.33645
head -0.181091 -3.14381 1.15811
rclavicle 1.23246e-014 -1.74931e-014
rhumerus -92.5639 -186.828 -19.2711
rradius 13.1132
rwrist 167.194
rhand -5.66234 367.412
rfingers 7.12502
rthumb 20.1569 -21.5624
lclavicle 1.23246e-014 -1.74931e-014
lhumerus -120.959 207.243 -107.245
lradius 73.5985
lwrist 25.1617
lhand -22.3747 367.504
lfingers 7.12502
lthumb 4.04694 37.4452
rfemur 11.6743 20.1238 20.2184
rtibia 25.1246
rfoot -36.6383 -25.8653
rtoes 2.53207
lfemur -8.24101 -15.9689 -17.9051
ltibia 39.4604
lfoot -0.521311 0.541631
ltoes 12.4538
183
root -0.72895 17.8469 0.184564 -23.5859 -80.8056 15.1351
lowerback 8.33905 1.79013 1.77415
upperback -6.30395 2.00082 -5.04934
thorax -11.2774 0.508601 -6.86686
lowerneck 10.9995 -4.15751 -1.36549
upperneck 4.71371 -5.89704 2.3761
head -0.238169 -3.08291 1.15982
rclavicle 2.70347e-014 -1.11319e-014
rhumerus -92.443 -186.464 -18.4212
rradius 13.0047
rwrist 166.161
rhand -7.91271 367.814
rfingers 7.12502
rthumb 17.9928 -21.3733
lclavicle 2.70347e-014 -1.11319e-014
lhumerus -121.201 207.29 -107.29
lradius 73.6923
lwrist 25.3518
lhand -22.6923 367.553
lfingers 7.12502
lthumb 3.74021 37.4999
rfemur 11.5755 19.8254 20.0712
rtibia 25.2023
rfoot -35.9711 -25.9028
rtoes 2.29338
lfemur -8.16897 -15.7987 -17.8697
ltibia 39.5164
lfoot -0.555201 0.501548
ltoes 12.4139
